<?xml version="1.0" standalone="no"?>
<!DOCTYPE svg PUBLIC "-//W3C//DTD SVG 20010904//EN"
 "http://www.w3.org/TR/2001/REC-SVG-20010904/DTD/svg10.dtd">
<svg version="1.0" xmlns="http://www.w3.org/2000/svg"
 width="525.000000pt" height="525.000000pt" viewBox="0 0 525.000000 525.000000"
 preserveAspectRatio="xMidYMid meet">
<metadata>
Created by potrace 1.14, written by Peter Selinger 2001-2017
</metadata>
<g transform="translate(0.000000,525.000000) scale(0.100000,-0.100000)"
fill="#000000" stroke="none">
<path d="M170 4770 c0 -3 -27 -3 -61 -2 -56 4 -60 2 -51 -15 16 -30 52 -116
57 -133 0 -3 11 -25 24 -50 13 -25 23 -46 23 -47 -1 -2 5 -18 13 -37 8 -20 15
-40 15 -46 0 -5 4 -10 8 -10 12 0 33 -71 25 -83 -3 -6 -1 -7 4 -4 6 4 16 -6
22 -23 5 -17 7 -30 3 -30 -4 0 -2 -4 3 -8 10 -7 16 -19 53 -102 26 -59 59
-133 88 -198 14 -29 22 -57 19 -62 -3 -4 1 -10 9 -13 7 -3 16 -18 20 -33 4
-14 25 -65 47 -111 21 -47 39 -88 39 -91 0 -3 9 -24 19 -46 24 -49 39 -89 37
-97 0 -3 7 -13 17 -23 9 -10 15 -21 12 -26 -3 -5 -1 -11 5 -15 6 -4 8 -11 5
-16 -4 -5 -2 -9 4 -9 5 0 8 -9 6 -20 -2 -11 0 -18 4 -16 8 5 57 -103 53 -116
-1 -5 3 -8 8 -8 6 0 10 -7 10 -15 0 -8 4 -23 10 -33 5 -9 23 -48 40 -87 17
-38 37 -83 45 -100 7 -16 11 -33 9 -37 -3 -4 -1 -8 3 -8 5 0 14 -9 21 -21 8
-12 9 -18 3 -15 -5 3 7 -26 27 -66 19 -40 36 -77 37 -83 0 -5 16 -41 34 -80
19 -38 34 -76 34 -82 0 -7 3 -13 7 -13 5 0 30 -57 36 -82 1 -5 3 -11 4 -15 1
-5 2 -11 1 -15 0 -5 3 -8 8 -8 13 0 34 -57 25 -71 -4 -7 -3 -10 3 -6 8 5 36
-47 36 -70 0 -4 7 -14 14 -21 7 -8 11 -18 8 -23 -4 -5 -1 -9 4 -9 6 0 11 -9
11 -19 0 -11 5 -23 10 -26 6 -3 10 -15 10 -26 0 -10 4 -19 9 -19 7 0 12 -11
26 -60 1 -3 16 -36 34 -75 18 -38 34 -74 35 -80 1 -5 15 -37 30 -70 16 -33 29
-66 29 -72 0 -7 4 -13 9 -13 4 0 8 -5 8 -12 0 -11 7 -28 62 -145 12 -27 23
-52 24 -58 1 -5 17 -41 35 -80 18 -38 34 -74 35 -80 1 -5 23 -55 48 -110 25
-55 44 -107 40 -115 -3 -8 -2 -11 2 -7 7 7 33 -36 39 -64 2 -9 8 -25 14 -35
20 -37 44 -97 44 -110 0 -7 4 -11 9 -8 4 3 8 -2 8 -11 0 -8 4 -23 9 -33 14
-25 24 -56 23 -64 -1 -5 2 -8 6 -8 9 0 68 -140 64 -152 -1 -5 2 -8 6 -8 9 0
37 -70 34 -82 -1 -5 2 -8 6 -8 5 0 15 -18 22 -40 7 -21 16 -39 19 -38 3 0 8
-1 11 -2 14 -6 543 -4 546 2 3 4 11 5 18 2 26 -10 151 -11 170 -1 16 8 18 6
12 -8 -5 -14 -3 -15 6 -8 7 6 38 10 68 8 30 -1 64 2 74 8 16 8 18 6 12 -8 -5
-14 -3 -15 6 -8 7 6 24 10 38 9 14 -1 31 2 38 7 8 6 12 5 12 -2 0 -7 5 -9 10
-6 5 3 10 0 10 -7 0 -8 3 -9 8 -3 11 16 72 18 72 3 0 -10 2 -10 8 -1 5 8 47
11 139 10 124 -2 132 -1 139 18 3 11 7 23 9 28 1 4 3 11 4 17 0 5 11 19 24 31
12 12 16 19 9 15 -10 -6 -9 1 2 29 9 21 16 40 16 42 0 3 8 2 18 -2 14 -5 15
-4 5 6 -16 16 -17 33 -1 23 6 -4 8 -3 5 4 -4 5 -4 18 -1 27 6 13 9 14 16 3 5
-8 6 -3 2 15 -5 22 -3 27 12 28 11 0 14 3 7 5 -9 4 -7 15 7 39 10 18 16 36 13
39 -10 9 19 36 31 29 6 -4 5 1 -3 10 -12 16 -8 22 12 18 5 -1 6 3 2 8 -3 6 14
56 38 113 49 116 59 141 57 147 -1 2 3 7 10 11 6 4 13 16 14 26 2 10 9 18 16
16 6 -1 9 1 6 6 -10 16 17 82 33 82 13 0 13 2 2 9 -9 6 -10 11 -2 15 6 4 8 12
5 18 -5 7 -1 9 9 5 10 -3 17 -2 17 3 0 6 -6 10 -12 10 -9 0 -8 4 2 10 8 5 11
10 6 10 -6 0 -1 7 10 16 10 8 13 12 6 9 -10 -5 -8 3 4 26 10 19 18 39 19 44 2
26 49 113 58 108 6 -3 7 -1 3 5 -6 11 30 111 55 152 9 15 13 24 31 73 9 23 13
25 27 15 14 -12 14 -11 2 4 -11 15 -11 23 5 55 10 21 17 41 16 46 -1 4 6 7 16
8 11 0 12 2 4 6 -8 3 -9 9 -4 16 5 7 16 30 25 52 8 22 25 63 38 90 12 28 23
52 24 55 1 3 8 19 15 35 7 17 14 32 15 35 5 18 41 86 47 88 4 2 4 10 1 18 -3
7 2 17 11 20 9 3 16 10 16 16 0 5 -5 6 -11 2 -6 -3 -3 6 7 21 10 16 19 34 20
41 1 7 14 38 28 68 14 30 31 67 36 81 7 17 14 24 22 19 9 -5 9 -2 -1 9 -8 11
-9 17 -3 17 6 0 9 7 6 15 -4 8 -1 15 4 15 9 0 23 27 27 50 0 3 7 16 15 30 7
14 13 26 12 27 -1 2 6 20 15 40 9 21 16 41 15 46 -3 12 16 8 22 -5 3 -7 3 -3
0 10 -5 22 15 82 28 82 3 0 9 -6 11 -12 4 -10 6 -10 6 -1 1 6 -3 14 -8 17 -10
7 -3 46 8 46 4 0 8 6 8 13 0 6 10 33 21 59 12 26 22 52 22 58 0 6 4 9 9 6 5
-3 8 0 7 7 -2 25 28 87 44 87 12 0 12 2 1 9 -9 6 -10 11 -2 15 6 4 9 12 6 17
-4 5 -1 9 4 9 6 0 11 9 11 21 0 13 4 18 12 13 7 -4 8 -3 4 5 -8 12 30 101 48
113 6 4 7 8 2 8 -5 0 -3 6 3 13 6 8 8 17 4 20 -3 4 -1 7 6 7 7 0 9 5 6 10 -3
6 -2 10 4 10 6 0 7 7 4 17 -4 11 -3 14 5 9 8 -5 10 -2 6 8 -3 9 -1 16 5 16 6
0 10 3 10 8 -3 17 2 33 9 29 4 -3 8 5 8 17 1 12 13 47 28 78 14 30 26 60 26
66 0 7 5 12 12 12 6 0 8 3 5 7 -4 3 0 15 10 25 9 10 12 18 8 18 -5 0 0 7 11
16 10 8 13 13 7 9 -18 -8 -16 -1 6 39 11 19 17 37 14 40 -3 3 2 8 11 12 9 3
14 10 11 14 -8 12 6 41 16 34 5 -3 6 2 3 10 -3 9 -1 16 6 16 6 0 8 4 5 10 -3
5 1 23 10 40 8 16 15 33 14 36 0 4 5 10 12 14 7 5 13 21 15 36 2 16 8 30 14
32 5 2 10 10 10 17 0 21 32 85 40 80 4 -2 5 7 2 20 -2 15 0 25 7 25 6 0 11 9
11 20 0 11 5 20 11 20 5 0 8 4 4 9 -3 5 0 15 7 23 7 7 14 20 16 28 2 8 21 56
42 107 22 51 42 104 46 118 l6 25 -231 -1 c-127 0 -235 3 -241 6 -5 3 -10 3
-10 -2 0 -4 -61 -6 -135 -3 -74 3 -135 2 -135 -2 0 -3 -8 -4 -17 -2 -26 7
-303 10 -303 4 0 -3 -26 -3 -57 0 -32 3 -87 3 -123 0 -36 -3 -95 -3 -132 0
l-67 5 -7 -30 c-3 -16 -10 -34 -14 -40 -4 -5 -15 -30 -23 -55 -8 -25 -45 -120
-81 -212 -36 -91 -66 -169 -66 -171 0 -3 -5 -18 -12 -34 -6 -15 -25 -64 -42
-108 l-31 -80 -793 -2 -793 -2 -11 27 c-5 15 -17 39 -25 55 -8 15 -12 27 -9
27 3 0 -1 12 -9 27 -8 15 -12 30 -9 35 3 4 0 8 -5 8 -6 0 -11 9 -11 19 0 11
-5 23 -11 26 -6 5 -4 12 8 20 17 13 17 13 0 12 -14 -2 -25 16 -48 78 -17 44
-37 95 -45 113 -8 18 -12 37 -9 42 3 6 1 10 -4 10 -6 0 -11 9 -11 20 0 11 -3
20 -8 20 -4 0 -13 19 -20 42 -7 23 -22 61 -33 85 -10 23 -19 47 -19 52 0 11
-29 12 -255 12 -25 0 -51 0 -57 0 -7 0 -100 0 -206 -1 -105 -1 -197 2 -202 5
-6 3 -10 3 -10 -2 0 -4 -61 -6 -135 -3 -74 3 -135 2 -135 -2 0 -3 -8 -4 -17
-2 -26 7 -303 10 -303 4z m2483 -1754 c-4 -5 0 -6 7 -1 19 12 160 14 153 2 -3
-5 3 -5 13 1 20 11 86 8 105 -4 8 -4 9 -3 5 4 -4 7 -3 12 2 12 17 0 20 -12 9
-45 -7 -24 -14 -32 -26 -28 -14 4 -14 3 -1 -6 12 -9 13 -14 3 -31 -7 -11 -13
-25 -13 -31 0 -6 -6 -25 -14 -42 -8 -18 -44 -111 -80 -207 -37 -96 -71 -184
-76 -195 -4 -11 -40 -103 -79 -205 -40 -102 -76 -193 -81 -202 -6 -10 -10 -25
-10 -33 0 -34 -17 -11 -44 59 -15 41 -25 79 -21 86 4 6 1 9 -7 8 -8 -2 -13 6
-12 19 1 13 -2 21 -6 18 -11 -7 -40 92 -34 113 4 11 3 13 -3 5 -6 -8 -18 14
-37 65 -16 42 -35 91 -41 107 -29 70 -67 171 -70 186 -2 9 -8 25 -13 35 -5 11
-15 33 -22 49 -7 17 -16 38 -21 48 -6 12 -5 17 3 17 7 0 5 5 -5 11 -9 6 -15
14 -12 20 4 5 1 9 -4 9 -6 0 -10 3 -9 8 1 4 -4 21 -11 37 -23 55 -40 109 -36
114 2 3 113 6 248 6 144 0 243 -4 240 -9z"/>
<path d="M2875 3011 c-3 -5 -2 -12 3 -15 5 -3 9 1 9 9 0 17 -3 19 -12 6z"/>
<path d="M2310 2996 c0 -2 7 -7 16 -10 8 -3 12 -2 9 4 -6 10 -25 14 -25 6z"/>
<path d="M2639 2983 c-13 -16 -12 -17 4 -4 16 13 21 21 13 21 -2 0 -10 -8 -17
-17z"/>
<path d="M2199 2963 c-13 -16 -12 -17 4 -4 9 7 17 15 17 17 0 8 -8 3 -21 -13z"/>
<path d="M2270 2969 c0 -5 5 -7 10 -4 6 3 10 8 10 11 0 2 -4 4 -10 4 -5 0 -10
-5 -10 -11z"/>
<path d="M2690 2969 c0 -5 5 -7 10 -4 6 3 10 8 10 11 0 2 -4 4 -10 4 -5 0 -10
-5 -10 -11z"/>
<path d="M2335 2950 c-3 -5 -1 -10 4 -10 6 0 11 5 11 10 0 6 -2 10 -4 10 -3 0
-8 -4 -11 -10z"/>
<path d="M2550 2956 c0 -2 7 -7 16 -10 8 -3 12 -2 9 4 -6 10 -25 14 -25 6z"/>
<path d="M2847 2929 c7 -7 15 -10 18 -7 3 3 -2 9 -12 12 -14 6 -15 5 -6 -5z"/>
<path d="M2275 2850 c3 -5 8 -10 11 -10 2 0 4 5 4 10 0 6 -5 10 -11 10 -5 0
-7 -4 -4 -10z"/>
<path d="M4970 4389 c0 -5 5 -7 10 -4 6 3 10 8 10 11 0 2 -4 4 -10 4 -5 0 -10
-5 -10 -11z"/>
<path d="M4973 4345 c0 -8 4 -12 9 -9 5 3 6 10 3 15 -9 13 -12 11 -12 -6z"/>
<path d="M4910 4336 c0 -2 7 -7 16 -10 8 -3 12 -2 9 4 -6 10 -25 14 -25 6z"/>
<path d="M4866 4189 c2 -4 13 -7 24 -6 23 2 17 10 -10 12 -10 1 -17 -2 -14 -6z"/>
<path d="M4856 4072 c-3 -5 1 -9 9 -9 8 0 12 4 9 9 -3 4 -7 8 -9 8 -2 0 -6 -4
-9 -8z"/>
<path d="M4774 3926 c1 -8 5 -18 8 -22 4 -3 5 1 4 10 -1 8 -5 18 -8 22 -4 3
-5 -1 -4 -10z"/>
<path d="M4695 3830 c-3 -5 -1 -10 4 -10 6 0 11 5 11 10 0 6 -2 10 -4 10 -3 0
-8 -4 -11 -10z"/>
<path d="M4725 3830 c-3 -6 1 -7 9 -4 18 7 21 14 7 14 -6 0 -13 -4 -16 -10z"/>
<path d="M4656 3743 c-6 -14 -5 -15 5 -6 7 7 10 15 7 18 -3 3 -9 -2 -12 -12z"/>
<path d="M4686 3752 c-3 -5 1 -9 9 -9 8 0 12 4 9 9 -3 4 -7 8 -9 8 -2 0 -6 -4
-9 -8z"/>
<path d="M4696 3708 c3 -5 10 -6 15 -3 13 9 11 12 -6 12 -8 0 -12 -4 -9 -9z"/>
<path d="M4614 3566 c1 -8 5 -18 8 -22 4 -3 5 1 4 10 -1 8 -5 18 -8 22 -4 3
-5 -1 -4 -10z"/>
<path d="M4577 3485 c-4 -8 -3 -16 1 -19 4 -3 9 4 9 15 2 23 -3 25 -10 4z"/>
<path d="M4636 3483 c-6 -14 -5 -15 5 -6 7 7 10 15 7 18 -3 3 -9 -2 -12 -12z"/>
<path d="M4490 3310 c0 -5 5 -10 11 -10 5 0 7 5 4 10 -3 6 -8 10 -11 10 -2 0
-4 -4 -4 -10z"/>
<path d="M4495 3281 c-3 -5 -2 -12 3 -15 5 -3 9 1 9 9 0 17 -3 19 -12 6z"/>
<path d="M4427 3209 c7 -7 15 -10 18 -7 3 3 -2 9 -12 12 -14 6 -15 5 -6 -5z"/>
<path d="M4460 3216 c0 -2 8 -10 18 -17 15 -13 16 -12 3 4 -13 16 -21 21 -21
13z"/>
<path d="M4393 3095 c0 -8 4 -15 9 -15 4 0 8 4 8 9 0 6 -4 12 -8 15 -5 3 -9
-1 -9 -9z"/>
<path d="M4390 3049 c0 -5 5 -7 10 -4 6 3 10 8 10 11 0 2 -4 4 -10 4 -5 0 -10
-5 -10 -11z"/>
<path d="M4346 3008 c3 -5 10 -6 15 -3 13 9 11 12 -6 12 -8 0 -12 -4 -9 -9z"/>
<path d="M4350 2971 c0 -6 4 -13 10 -16 6 -3 7 1 4 9 -7 18 -14 21 -14 7z"/>
<path d="M4273 2841 c0 -11 5 -18 9 -15 4 3 5 11 1 19 -7 21 -12 19 -10 -4z"/>
<path d="M4290 2810 c0 -5 5 -10 11 -10 5 0 7 5 4 10 -3 6 -8 10 -11 10 -2 0
-4 -4 -4 -10z"/>
<path d="M4186 2632 c-3 -5 1 -9 9 -9 8 0 12 4 9 9 -3 4 -7 8 -9 8 -2 0 -6 -4
-9 -8z"/>
<path d="M4175 2550 c3 -5 8 -10 11 -10 2 0 4 5 4 10 0 6 -5 10 -11 10 -5 0
-7 -4 -4 -10z"/>
<path d="M4176 2508 c3 -5 10 -6 15 -3 13 9 11 12 -6 12 -8 0 -12 -4 -9 -9z"/>
<path d="M4126 2468 c3 -5 10 -6 15 -3 13 9 11 12 -6 12 -8 0 -12 -4 -9 -9z"/>
<path d="M4070 2355 c0 -7 30 -13 34 -7 3 4 -4 9 -15 9 -10 1 -19 0 -19 -2z"/>
<path d="M4040 2310 c-12 -7 -10 -9 7 -7 12 0 19 5 17 9 -6 10 -6 10 -24 -2z"/>
<path d="M4116 2297 c3 -10 9 -15 12 -12 3 3 0 11 -7 18 -10 9 -11 8 -5 -6z"/>
<path d="M3993 2175 c0 -8 4 -12 9 -9 5 3 6 10 3 15 -9 13 -12 11 -12 -6z"/>
<path d="M3915 1999 c-4 -6 -5 -12 -2 -15 2 -3 7 2 10 11 7 17 1 20 -8 4z"/>
<path d="M3880 1910 c-12 -7 -10 -9 7 -7 12 0 19 5 17 9 -6 10 -6 10 -24 -2z"/>
<path d="M3720 1610 c-9 -6 -10 -10 -3 -10 6 0 15 5 18 10 8 12 4 12 -15 0z"/>
<path d="M3726 1552 c-3 -5 1 -9 9 -9 8 0 12 4 9 9 -3 4 -7 8 -9 8 -2 0 -6 -4
-9 -8z"/>
<path d="M3615 1170 c-3 -5 -1 -10 4 -10 6 0 11 5 11 10 0 6 -2 10 -4 10 -3 0
-8 -4 -11 -10z"/>
<path d="M3570 1151 c0 -6 4 -13 10 -16 6 -3 7 1 4 9 -7 18 -14 21 -14 7z"/>
<path d="M3506 1092 c-3 -5 1 -9 9 -9 8 0 12 4 9 9 -3 4 -7 8 -9 8 -2 0 -6 -4
-9 -8z"/>
<path d="M3479 1003 c-13 -16 -12 -17 4 -4 9 7 17 15 17 17 0 8 -8 3 -21 -13z"/>
<path d="M3425 910 c-3 -6 1 -7 9 -4 18 7 21 14 7 14 -6 0 -13 -4 -16 -10z"/>
<path d="M3435 800 c-4 -6 -11 -7 -17 -4 -7 4 -8 2 -4 -5 6 -9 11 -9 22 0 14
11 18 19 10 19 -3 0 -8 -5 -11 -10z"/>
<path d="M3370 710 c0 -5 5 -10 11 -10 5 0 7 5 4 10 -3 6 -8 10 -11 10 -2 0
-4 -4 -4 -10z"/>
<path d="M2075 571 c-3 -5 -2 -12 3 -15 5 -3 9 1 9 9 0 17 -3 19 -12 6z"/>
<path d="M2195 571 c-3 -5 -2 -12 3 -15 5 -3 9 1 9 9 0 17 -3 19 -12 6z"/>
<path d="M2275 571 c-3 -5 -2 -12 3 -15 5 -3 9 1 9 9 0 17 -3 19 -12 6z"/>
<path d="M2515 571 c-3 -5 -2 -12 3 -15 5 -3 9 1 9 9 0 17 -3 19 -12 6z"/>
<path d="M3026 572 c-3 -5 1 -9 9 -9 8 0 12 4 9 9 -3 4 -7 8 -9 8 -2 0 -6 -4
-9 -8z"/>
<path d="M3075 571 c-3 -5 -2 -12 3 -15 5 -3 9 1 9 9 0 17 -3 19 -12 6z"/>
<path d="M2471 543 c7 -12 15 -20 18 -17 3 2 -3 12 -13 22 -17 16 -18 16 -5
-5z"/>
<path d="M2397 543 c-10 -9 -9 -23 1 -23 5 0 9 7 9 15 0 17 -1 18 -10 8z"/>
<path d="M2890 530 c0 -5 5 -10 11 -10 5 0 7 5 4 10 -3 6 -8 10 -11 10 -2 0
-4 -4 -4 -10z"/>
<path d="M2946 532 c-3 -5 1 -9 9 -9 8 0 12 4 9 9 -3 4 -7 8 -9 8 -2 0 -6 -4
-9 -8z"/>
<path d="M2110 510 c0 -5 5 -10 11 -10 5 0 7 5 4 10 -3 6 -8 10 -11 10 -2 0
-4 -4 -4 -10z"/>
<path d="M2173 505 c0 -8 4 -12 9 -9 5 3 6 10 3 15 -9 13 -12 11 -12 -6z"/>
<path d="M2770 516 c0 -2 7 -7 16 -10 8 -3 12 -2 9 4 -6 10 -25 14 -25 6z"/>
<path d="M2675 501 c-3 -5 -2 -12 3 -15 5 -3 9 1 9 9 0 17 -3 19 -12 6z"/>
<path d="M2835 501 c-3 -5 -2 -12 3 -15 5 -3 9 1 9 9 0 17 -3 19 -12 6z"/>
</g>
</svg>
