<svg width="2388" height="270" viewBox="0 0 2388 270" fill="none" xmlns="http://www.w3.org/2000/svg">
<g filter="url(#filter0_d)">
<path d="M475.583 255H472.583V258H475.583V255ZM493.433 255V258H496.433V255H493.433ZM493.433 9.99998H496.433V6.99998H493.433V9.99998ZM475.583 9.99998V6.99998H472.583V9.99998H475.583ZM475.583 258H493.433V252H475.583V258ZM496.433 255V9.99998H490.433V255H496.433ZM493.433 6.99998H475.583V13H493.433V6.99998ZM472.583 9.99998V255H478.583V9.99998H472.583ZM775.505 255V258H778.51L778.505 254.996L775.505 255ZM775.155 9.99998L778.155 9.9957L778.151 6.99998H775.155V9.99998ZM760.455 9.99998V6.99998H758.725L757.859 8.49763L760.455 9.99998ZM650.905 199.35L648.309 200.852L650.905 205.341L653.502 200.852L650.905 199.35ZM541.355 9.99998L543.952 8.49763L543.086 6.99998H541.355V9.99998ZM526.305 9.99998V6.99998H523.305V9.99998H526.305ZM526.305 255H523.305V258H526.305V255ZM543.805 255V258H546.805V255H543.805ZM543.805 46.05L546.399 44.5422L540.805 34.9205V46.05H543.805ZM646.355 222.45L643.762 223.958L644.629 225.45H646.355V222.45ZM655.105 222.45V225.45H656.835L657.702 223.953L655.105 222.45ZM757.655 45.35L760.655 45.345L760.637 34.2144L755.059 43.8467L757.655 45.35ZM758.005 255L755.005 255.005L755.01 258H758.005V255ZM778.505 254.996L778.155 9.9957L772.155 10.0043L772.505 255.004L778.505 254.996ZM775.155 6.99998H760.455V13H775.155V6.99998ZM757.859 8.49763L648.309 197.848L653.502 200.852L763.052 11.5023L757.859 8.49763ZM653.502 197.848L543.952 8.49763L538.759 11.5023L648.309 200.852L653.502 197.848ZM541.355 6.99998H526.305V13H541.355V6.99998ZM523.305 9.99998V255H529.305V9.99998H523.305ZM526.305 258H543.805V252H526.305V258ZM546.805 255V46.05H540.805V255H546.805ZM541.212 47.5578L643.762 223.958L648.949 220.942L546.399 44.5422L541.212 47.5578ZM646.355 225.45H655.105V219.45H646.355V225.45ZM657.702 223.953L760.252 46.8533L755.059 43.8467L652.509 220.947L657.702 223.953ZM754.655 45.355L755.005 255.005L761.005 254.995L760.655 45.345L754.655 45.355ZM758.005 258H775.505V252H758.005V258ZM991.475 255L988.746 256.247L989.547 258H991.475V255ZM1010.72 255V258H1015.41L1013.45 253.746L1010.72 255ZM898.025 9.99998L900.75 8.74627L899.947 6.99998H898.025V9.99998ZM880.175 9.99998V6.99998H878.252L877.449 8.74627L880.175 9.99998ZM767.475 255L764.749 253.746L762.792 258H767.475V255ZM786.725 255V258H788.661L789.459 256.235L786.725 255ZM817.875 186.05V183.05H815.938L815.141 184.815L817.875 186.05ZM959.975 186.05L962.703 184.803L961.902 183.05H959.975V186.05ZM824.875 171L822.142 169.762L820.222 174H824.875V171ZM888.925 29.6L891.655 28.3565L888.917 22.3457L886.192 28.3621L888.925 29.6ZM953.325 171V174H957.987L956.055 169.757L953.325 171ZM991.475 258H1010.72V252H991.475V258ZM1013.45 253.746L900.75 8.74627L895.299 11.2537L1008 256.254L1013.45 253.746ZM898.025 6.99998H880.175V13H898.025V6.99998ZM877.449 8.74627L764.749 253.746L770.2 256.254L882.9 11.2537L877.449 8.74627ZM767.475 258H786.725V252H767.475V258ZM789.459 256.235L820.609 187.285L815.141 184.815L783.991 253.765L789.459 256.235ZM817.875 189.05H959.975V183.05H817.875V189.05ZM957.246 187.297L988.746 256.247L994.203 253.753L962.703 184.803L957.246 187.297ZM827.607 172.238L891.657 30.8378L886.192 28.3621L822.142 169.762L827.607 172.238ZM886.194 30.8434L950.594 172.243L956.055 169.757L891.655 28.3565L886.194 30.8434ZM953.325 168H824.875V174H953.325V168ZM1002.7 255H999.702V258H1002.7V255ZM1161.6 255V258H1164.6V255H1161.6ZM1161.6 238.9H1164.6V235.9H1161.6V238.9ZM1020.55 238.9H1017.55V241.9H1020.55V238.9ZM1020.55 9.99998H1023.55V6.99998H1020.55V9.99998ZM1002.7 9.99998V6.99998H999.702V9.99998H1002.7ZM1002.7 258H1161.6V252H1002.7V258ZM1164.6 255V238.9H1158.6V255H1164.6ZM1161.6 235.9H1020.55V241.9H1161.6V235.9ZM1023.55 238.9V9.99998H1017.55V238.9H1023.55ZM1020.55 6.99998H1002.7V13H1020.55V6.99998ZM999.702 9.99998V255H1005.7V9.99998H999.702ZM1192.33 9.99998V6.99998H1189.33V9.99998H1192.33ZM1192.33 255H1189.33V258H1192.33V255ZM1210.18 255V258H1213.18V255H1210.18ZM1210.18 174.85V171.85H1207.18V174.85H1210.18ZM1210.18 158.75H1207.18V161.75H1210.18V158.75ZM1210.18 26.1V23.1H1207.18V26.1H1210.18ZM1280.18 6.99998H1192.33V13H1280.18V6.99998ZM1189.33 9.99998V255H1195.33V9.99998H1189.33ZM1192.33 258H1210.18V252H1192.33V258ZM1213.18 255V174.85H1207.18V255H1213.18ZM1210.18 177.85H1280.18V171.85H1210.18V177.85ZM1280.18 177.85C1311.45 177.85 1336.88 170.035 1354.55 155.324C1372.29 140.555 1381.88 119.103 1381.88 92.6H1375.88C1375.88 117.547 1366.92 137.22 1350.71 150.713C1334.43 164.265 1310.52 171.85 1280.18 171.85V177.85ZM1381.88 92.6C1381.88 65.9282 1372.3 44.3885 1354.55 29.5723C1336.88 14.8145 1311.45 6.99998 1280.18 6.99998V13C1310.52 13 1334.43 20.5855 1350.71 34.1777C1366.92 47.7114 1375.88 67.4717 1375.88 92.6H1381.88ZM1280.18 155.75H1210.18V161.75H1280.18V155.75ZM1213.18 158.75V26.1H1207.18V158.75H1213.18ZM1210.18 29.1H1280.18V23.1H1210.18V29.1ZM1280.18 29.1C1306.02 29.1 1325.36 35.0487 1338.19 45.771C1350.94 56.4226 1357.68 72.1276 1357.68 92.6H1363.68C1363.68 70.7224 1356.42 53.1774 1342.04 41.1665C1327.75 29.2263 1306.84 23.1 1280.18 23.1V29.1ZM1357.68 92.6C1357.68 112.89 1350.95 128.508 1338.2 139.119C1325.36 149.801 1306.02 155.75 1280.18 155.75V161.75C1306.84 161.75 1327.75 155.624 1342.04 143.731C1356.41 131.767 1363.68 114.31 1363.68 92.6H1357.68ZM1493.98 259.75C1568.36 259.75 1624.38 205.634 1624.38 132.5H1618.38C1618.38 202.166 1565.2 253.75 1493.98 253.75V259.75ZM1624.38 132.5C1624.38 59.3665 1568.36 5.24998 1493.98 5.24998V11.25C1565.2 11.25 1618.38 62.8335 1618.38 132.5H1624.38ZM1493.98 5.24998C1419.24 5.24998 1363.58 59.7274 1363.58 132.5H1369.58C1369.58 63.1726 1422.42 11.25 1493.98 11.25V5.24998ZM1363.58 132.5C1363.58 205.273 1419.24 259.75 1493.98 259.75V253.75C1422.42 253.75 1369.58 201.827 1369.58 132.5H1363.58ZM1493.98 237.3C1432.93 237.3 1387.43 192.742 1387.43 132.5H1381.43C1381.43 196.158 1429.72 243.3 1493.98 243.3V237.3ZM1387.43 132.5C1387.43 72.2577 1432.93 27.7 1493.98 27.7V21.7C1429.72 21.7 1381.43 68.8423 1381.43 132.5H1387.43ZM1493.98 27.7C1554.66 27.7 1600.18 72.2514 1600.18 132.5H1606.18C1606.18 68.8486 1557.89 21.7 1493.98 21.7V27.7ZM1600.18 132.5C1600.18 192.749 1554.66 237.3 1493.98 237.3V243.3C1557.89 243.3 1606.18 196.151 1606.18 132.5H1600.18ZM1630.79 255H1627.79V258H1630.79V255ZM1789.69 255V258H1792.69V255H1789.69ZM1789.69 238.9H1792.69V235.9H1789.69V238.9ZM1648.64 238.9H1645.64V241.9H1648.64V238.9ZM1648.64 9.99998H1651.64V6.99998H1648.64V9.99998ZM1630.79 9.99998V6.99998H1627.79V9.99998H1630.79ZM1630.79 258H1789.69V252H1630.79V258ZM1792.69 255V238.9H1786.69V255H1792.69ZM1789.69 235.9H1648.64V241.9H1789.69V235.9ZM1651.64 238.9V9.99998H1645.64V238.9H1651.64ZM1648.64 6.99998H1630.79V13H1648.64V6.99998ZM1627.79 9.99998V255H1633.79V9.99998H1627.79ZM1783.02 255H1780.02V258H1783.02V255ZM1800.87 255V258H1803.87V255H1800.87ZM1800.87 9.99998H1803.87V6.99998H1800.87V9.99998ZM1783.02 9.99998V6.99998H1780.02V9.99998H1783.02ZM1783.02 258H1800.87V252H1783.02V258ZM1803.87 255V9.99998H1797.87V255H1803.87ZM1800.87 6.99998H1783.02V13H1800.87V6.99998ZM1780.02 9.99998V255H1786.02V9.99998H1780.02ZM1880.65 255H1877.65V258H1880.65V255ZM1898.5 255V258H1901.5V255H1898.5ZM1898.5 26.1V23.1H1895.5V26.1H1898.5ZM1986.7 26.1V29.1H1989.7V26.1H1986.7ZM1986.7 9.99998H1989.7V6.99998H1986.7V9.99998ZM1792.45 9.99998V6.99998H1789.45V9.99998H1792.45ZM1792.45 26.1H1789.45V29.1H1792.45V26.1ZM1880.65 26.1H1883.65V23.1H1880.65V26.1ZM1880.65 258H1898.5V252H1880.65V258ZM1901.5 255V26.1H1895.5V255H1901.5ZM1898.5 29.1H1986.7V23.1H1898.5V29.1ZM1989.7 26.1V9.99998H1983.7V26.1H1989.7ZM1986.7 6.99998H1792.45V13H1986.7V6.99998ZM1789.45 9.99998V26.1H1795.45V9.99998H1789.45ZM1792.45 29.1H1880.65V23.1H1792.45V29.1ZM1877.65 26.1V255H1883.65V26.1H1877.65ZM1978.46 255H1975.46V258H1978.46V255ZM1996.31 255V258H1999.31V255H1996.31ZM1996.31 9.99998H1999.31V6.99998H1996.31V9.99998ZM1978.46 9.99998V6.99998H1975.46V9.99998H1978.46ZM1978.46 258H1996.31V252H1978.46V258ZM1999.31 255V9.99998H1993.31V255H1999.31ZM1996.31 6.99998H1978.46V13H1996.31V6.99998ZM1975.46 9.99998V255H1981.46V9.99998H1975.46ZM2207.34 255L2205.08 256.972L2205.97 258H2207.34V255ZM2229.04 255V258H2235.58L2231.31 253.042L2229.04 255ZM2113.89 121.3L2111.73 119.213L2109.82 121.181L2111.61 123.258L2113.89 121.3ZM2221.69 9.99998L2223.84 12.0872L2228.77 6.99998H2221.69V9.99998ZM2199.99 9.99998V6.99998H2198.72L2197.83 7.90998L2199.99 9.99998ZM2047.04 167.5H2044.04V174.895L2049.19 169.59L2047.04 167.5ZM2047.04 9.99998H2050.04V6.99998H2047.04V9.99998ZM2029.19 9.99998V6.99998H2026.19V9.99998H2029.19ZM2029.19 255H2026.19V258H2029.19V255ZM2047.04 255V258H2050.04V255H2047.04ZM2047.04 190.6L2044.89 188.506L2044.04 189.379V190.6H2047.04ZM2101.99 134.25L2104.25 132.278L2102.11 129.827L2099.84 132.156L2101.99 134.25ZM2207.34 258H2229.04V252H2207.34V258ZM2231.31 253.042L2116.16 119.342L2111.61 123.258L2226.76 256.958L2231.31 253.042ZM2116.04 123.387L2223.84 12.0872L2219.53 7.91282L2111.73 119.213L2116.04 123.387ZM2221.69 6.99998H2199.99V13H2221.69V6.99998ZM2197.83 7.90998L2044.88 165.41L2049.19 169.59L2202.14 12.09L2197.83 7.90998ZM2050.04 167.5V9.99998H2044.04V167.5H2050.04ZM2047.04 6.99998H2029.19V13H2047.04V6.99998ZM2026.19 9.99998V255H2032.19V9.99998H2026.19ZM2029.19 258H2047.04V252H2029.19V258ZM2050.04 255V190.6H2044.04V255H2050.04ZM2049.18 192.694L2104.13 136.344L2099.84 132.156L2044.89 188.506L2049.18 192.694ZM2099.73 136.222L2205.08 256.972L2209.6 253.028L2104.25 132.278L2099.73 136.222Z" fill="#0C0C0C"/>
<path d="M228.75 10L226.021 8.75338L226.822 7H228.75V10ZM248 10V7H252.682L250.725 11.2537L248 10ZM135.3 255L138.025 256.254L137.222 258H135.3V255ZM117.45 255V258H115.528L114.725 256.254L117.45 255ZM4.75 10L2.02453 11.2537L0.067819 7H4.75V10ZM24 10V7H25.9366L26.7339 8.76487L24 10ZM55.15 78.95V81.95H53.2134L52.4161 80.1851L55.15 78.95ZM197.25 78.95L199.979 80.1966L199.178 81.95H197.25V78.95ZM62.15 94L59.4173 95.2378L57.4977 91H62.15V94ZM126.2 235.4L128.93 236.643L126.193 242.654L123.467 236.638L126.2 235.4ZM190.6 94V91H195.263L193.33 95.2434L190.6 94ZM228.75 7H248V13H228.75V7ZM250.725 11.2537L138.025 256.254L132.575 253.746L245.275 8.74628L250.725 11.2537ZM135.3 258H117.45V252H135.3V258ZM114.725 256.254L2.02453 11.2537L7.47547 8.74628L120.175 253.746L114.725 256.254ZM4.75 7H24V13H4.75V7ZM26.7339 8.76487L57.8839 77.7149L52.4161 80.1851L21.2661 11.2351L26.7339 8.76487ZM55.15 75.95H197.25V81.95H55.15V75.95ZM194.521 77.7034L226.021 8.75338L231.479 11.2466L199.979 80.1966L194.521 77.7034ZM64.8827 92.7622L128.933 234.162L123.467 236.638L59.4173 95.2378L64.8827 92.7622ZM123.47 234.157L187.87 92.7566L193.33 95.2434L128.93 236.643L123.47 234.157ZM190.6 97H62.15V91H190.6V97ZM421.627 255V258H418.627V255H421.627ZM421.627 42.2L419.265 40.3507L424.627 33.5015V42.2H421.627ZM255.027 255L257.39 256.849L256.489 258H255.027V255ZM239.977 255V258H236.977V255H239.977ZM239.977 10H236.977V7H239.977V10ZM257.827 10V7H260.827V10H257.827ZM257.827 222.8L260.188 224.652L254.827 231.484V222.8H257.827ZM424.777 10L422.417 8.14825L423.318 7H424.777V10ZM439.477 10V7H442.477V10H439.477ZM439.477 255H442.477V258H439.477V255ZM418.627 255V42.2H424.627V255H418.627ZM423.99 44.0493L257.39 256.849L252.665 253.151L419.265 40.3507L423.99 44.0493ZM255.027 258H239.977V252H255.027V258ZM236.977 255V10H242.977V255H236.977ZM239.977 7H257.827V13H239.977V7ZM260.827 10V222.8H254.827V10H260.827ZM255.467 220.948L422.417 8.14825L427.138 11.8517L260.188 224.652L255.467 220.948ZM424.777 7H439.477V13H424.777V7ZM442.477 10V255H436.477V10H442.477ZM439.477 258H421.627V252H439.477V258Z" fill="#0C0C0C"/>
</g>
<defs>
<filter id="filter0_d" x="0.0678711" y="5.25" width="2245.51" height="264.5" filterUnits="userSpaceOnUse" color-interpolation-filters="sRGB">
<feFlood flood-opacity="0" result="BackgroundImageFix"/>
<feColorMatrix in="SourceAlpha" type="matrix" values="0 0 0 0 0 0 0 0 0 0 0 0 0 0 0 0 0 0 127 0"/>
<feOffset dx="5" dy="5"/>
<feGaussianBlur stdDeviation="2.5"/>
<feColorMatrix type="matrix" values="0 0 0 0 0 0 0 0 0 0 0 0 0 0 0 0 0 0 0.25 0"/>
<feBlend mode="normal" in2="BackgroundImageFix" result="effect1_dropShadow"/>
<feBlend mode="normal" in="SourceGraphic" in2="effect1_dropShadow" result="shape"/>
</filter>
</defs>
</svg>
