<svg width="2224" height="255" viewBox="0 0 2224 255" fill="none" xmlns="http://www.w3.org/2000/svg">
<mask id="path-1-outside-1" maskUnits="userSpaceOnUse" x="-0.25" y="0.25" width="2224" height="255" fill="black">
<rect fill="white" x="-0.25" y="0.25" width="2224" height="255"/>
<path d="M487.833 250H505.683V5H487.833V250ZM787.755 250L787.405 5H772.705L663.155 194.35L553.605 5H538.555V250H556.055V41.05L658.605 217.45H667.355L769.905 40.35L770.255 250H787.755ZM1003.72 250H1022.97L910.275 5H892.425L779.725 250H798.975L830.125 181.05H972.225L1003.72 250ZM837.125 166L901.175 24.6L965.575 166H837.125ZM1014.95 250H1173.85V233.9H1032.8V5H1014.95V250ZM1292.43 5H1204.58V250H1222.43V169.85H1292.43C1354.03 169.85 1391.13 139.05 1391.13 87.6C1391.13 35.8 1354.03 5 1292.43 5ZM1292.43 153.75H1222.43V21.1H1292.43C1344.93 21.1 1372.93 45.25 1372.93 87.6C1372.93 129.6 1344.93 153.75 1292.43 153.75ZM1506.23 251.75C1579.03 251.75 1633.63 198.9 1633.63 127.5C1633.63 56.1 1579.03 3.25 1506.23 3.25C1433.08 3.25 1378.83 56.45 1378.83 127.5C1378.83 198.55 1433.08 251.75 1506.23 251.75ZM1506.23 235.3C1443.58 235.3 1396.68 189.45 1396.68 127.5C1396.68 65.55 1443.58 19.7 1506.23 19.7C1568.53 19.7 1615.43 65.55 1615.43 127.5C1615.43 189.45 1568.53 235.3 1506.23 235.3ZM1630.79 250H1789.69V233.9H1648.64V5H1630.79V250ZM1770.77 250H1788.62V5H1770.77V250ZM1868.4 250H1886.25V21.1H1974.45V5H1780.2V21.1H1868.4V250ZM1966.21 250H1984.06V5H1966.21V250ZM2195.09 250H2216.79L2101.64 116.3L2209.44 5H2187.74L2034.79 162.5V5H2016.94V250H2034.79V185.6L2089.74 129.25L2195.09 250Z"/>
<path d="M228.75 5.00002H248L135.3 250H117.45L4.75 5.00002H24L55.15 73.95H197.25L228.75 5.00002ZM62.15 89L126.2 230.4L190.6 89H62.15ZM421.627 250V37.2L255.027 250H239.977V5.00002H257.827V217.8L424.777 5.00002H439.477V250H421.627Z"/>
</mask>
<path d="M487.833 250H505.683V5H487.833V250ZM787.755 250L787.405 5H772.705L663.155 194.35L553.605 5H538.555V250H556.055V41.05L658.605 217.45H667.355L769.905 40.35L770.255 250H787.755ZM1003.72 250H1022.97L910.275 5H892.425L779.725 250H798.975L830.125 181.05H972.225L1003.72 250ZM837.125 166L901.175 24.6L965.575 166H837.125ZM1014.95 250H1173.85V233.9H1032.8V5H1014.95V250ZM1292.43 5H1204.58V250H1222.43V169.85H1292.43C1354.03 169.85 1391.13 139.05 1391.13 87.6C1391.13 35.8 1354.03 5 1292.43 5ZM1292.43 153.75H1222.43V21.1H1292.43C1344.93 21.1 1372.93 45.25 1372.93 87.6C1372.93 129.6 1344.93 153.75 1292.43 153.75ZM1506.23 251.75C1579.03 251.75 1633.63 198.9 1633.63 127.5C1633.63 56.1 1579.03 3.25 1506.23 3.25C1433.08 3.25 1378.83 56.45 1378.83 127.5C1378.83 198.55 1433.08 251.75 1506.23 251.75ZM1506.23 235.3C1443.58 235.3 1396.68 189.45 1396.68 127.5C1396.68 65.55 1443.58 19.7 1506.23 19.7C1568.53 19.7 1615.43 65.55 1615.43 127.5C1615.43 189.45 1568.53 235.3 1506.23 235.3ZM1630.79 250H1789.69V233.9H1648.64V5H1630.79V250ZM1770.77 250H1788.62V5H1770.77V250ZM1868.4 250H1886.25V21.1H1974.45V5H1780.2V21.1H1868.4V250ZM1966.21 250H1984.06V5H1966.21V250ZM2195.09 250H2216.79L2101.64 116.3L2209.44 5H2187.74L2034.79 162.5V5H2016.94V250H2034.79V185.6L2089.74 129.25L2195.09 250Z" stroke="#0C0C0C" stroke-width="6" mask="url(#path-1-outside-1)"/>
<path d="M228.75 5.00002H248L135.3 250H117.45L4.75 5.00002H24L55.15 73.95H197.25L228.75 5.00002ZM62.15 89L126.2 230.4L190.6 89H62.15ZM421.627 250V37.2L255.027 250H239.977V5.00002H257.827V217.8L424.777 5.00002H439.477V250H421.627Z" stroke="#0C0C0C" stroke-width="6" mask="url(#path-1-outside-1)"/>
</svg>
