<svg width="2300" height="330" viewBox="0 0 2300 330" fill="none" xmlns="http://www.w3.org/2000/svg">
<path d="M516.101 287H533.951V42H516.101V287ZM816.024 287L815.674 42H800.974L691.424 231.35L581.874 42H566.824V287H584.324V78.05L686.874 254.45H695.624L798.174 77.35L798.524 287H816.024ZM1031.99 287H1051.24L938.543 42H920.693L807.993 287H827.243L858.393 218.05H1000.49L1031.99 287ZM865.393 203L929.443 61.6L993.843 203H865.393ZM1043.22 287H1202.12V270.9H1061.07V42H1043.22V287ZM1320.7 42H1232.85V287H1250.7V206.85H1320.7C1382.3 206.85 1419.4 176.05 1419.4 124.6C1419.4 72.8 1382.3 42 1320.7 42ZM1320.7 190.75H1250.7V58.1H1320.7C1373.2 58.1 1401.2 82.25 1401.2 124.6C1401.2 166.6 1373.2 190.75 1320.7 190.75ZM1534.49 288.75C1607.29 288.75 1661.89 235.9 1661.89 164.5C1661.89 93.1 1607.29 40.25 1534.49 40.25C1461.34 40.25 1407.09 93.45 1407.09 164.5C1407.09 235.55 1461.34 288.75 1534.49 288.75ZM1534.49 272.3C1471.84 272.3 1424.94 226.45 1424.94 164.5C1424.94 102.55 1471.84 56.7 1534.49 56.7C1596.79 56.7 1643.69 102.55 1643.69 164.5C1643.69 226.45 1596.79 272.3 1534.49 272.3ZM1659.06 287H1817.96V270.9H1676.91V42H1659.06V287ZM1799.04 287H1816.89V42H1799.04V287ZM1896.67 287H1914.52V58.1H2002.72V42H1808.47V58.1H1896.67V287ZM1994.48 287H2012.33V42H1994.48V287ZM2223.35 287H2245.05L2129.9 153.3L2237.7 42H2216L2063.05 199.5V42H2045.2V287H2063.05V222.6L2118 166.25L2223.35 287Z" fill="#FE7272"/>
<path d="M516.101 287H508.601V294.5H516.101V287ZM533.951 287V294.5H541.451V287H533.951ZM533.951 42H541.451V34.5H533.951V42ZM516.101 42V34.5H508.601V42H516.101ZM516.101 294.5H533.951V279.5H516.101V294.5ZM541.451 287V42H526.451V287H541.451ZM533.951 34.5H516.101V49.5H533.951V34.5ZM508.601 42V287H523.601V42H508.601ZM816.024 287V294.5H823.535L823.524 286.989L816.024 287ZM815.674 42L823.174 41.9893L823.163 34.5H815.674V42ZM800.974 42V34.5H796.648L794.482 38.2441L800.974 42ZM691.424 231.35L684.932 235.106L691.424 246.327L697.916 235.106L691.424 231.35ZM581.874 42L588.366 38.2441L586.2 34.5H581.874V42ZM566.824 42V34.5H559.324V42H566.824ZM566.824 287H559.324V294.5H566.824V287ZM584.324 287V294.5H591.824V287H584.324ZM584.324 78.05L590.808 74.2806L576.824 50.2263V78.05H584.324ZM686.874 254.45L680.39 258.219L682.559 261.95H686.874V254.45ZM695.624 254.45V261.95H699.948L702.114 258.208L695.624 254.45ZM798.174 77.35L805.674 77.3375L805.628 49.5111L791.684 73.5917L798.174 77.35ZM798.524 287L791.024 287.013L791.037 294.5H798.524V287ZM823.524 286.989L823.174 41.9893L808.174 42.0107L808.524 287.011L823.524 286.989ZM815.674 34.5H800.974V49.5H815.674V34.5ZM794.482 38.2441L684.932 227.594L697.916 235.106L807.466 45.7559L794.482 38.2441ZM697.916 227.594L588.366 38.2441L575.382 45.7559L684.932 235.106L697.916 227.594ZM581.874 34.5H566.824V49.5H581.874V34.5ZM559.324 42V287H574.324V42H559.324ZM566.824 294.5H584.324V279.5H566.824V294.5ZM591.824 287V78.05H576.824V287H591.824ZM577.84 81.8194L680.39 258.219L693.358 250.681L590.808 74.2806L577.84 81.8194ZM686.874 261.95H695.624V246.95H686.874V261.95ZM702.114 258.208L804.664 81.1083L791.684 73.5917L689.134 250.692L702.114 258.208ZM790.674 77.3625L791.024 287.013L806.024 286.987L805.674 77.3375L790.674 77.3625ZM798.524 294.5H816.024V279.5H798.524V294.5ZM1031.99 287L1025.17 290.117L1027.17 294.5H1031.99V287ZM1051.24 287V294.5H1062.95L1058.06 283.866L1051.24 287ZM938.543 42L945.357 38.8657L943.349 34.5H938.543V42ZM920.693 42V34.5H915.888L913.879 38.8657L920.693 42ZM807.993 287L801.179 283.866L796.288 294.5H807.993V287ZM827.243 287V294.5H832.085L834.078 290.088L827.243 287ZM858.393 218.05V210.55H853.552L851.558 214.962L858.393 218.05ZM1000.49 218.05L1007.31 214.933L1005.31 210.55H1000.49V218.05ZM865.393 203L858.561 199.905L853.762 210.5H865.393V203ZM929.443 61.6L936.269 58.4914L929.425 43.4642L922.611 58.5054L929.443 61.6ZM993.843 203V210.5H1005.5L1000.67 199.891L993.843 203ZM1031.99 294.5H1051.24V279.5H1031.99V294.5ZM1058.06 283.866L945.357 38.8657L931.729 45.1343L1044.43 290.134L1058.06 283.866ZM938.543 34.5H920.693V49.5H938.543V34.5ZM913.879 38.8657L801.179 283.866L814.807 290.134L927.507 45.1343L913.879 38.8657ZM807.993 294.5H827.243V279.5H807.993V294.5ZM834.078 290.088L865.228 221.138L851.558 214.962L820.408 283.912L834.078 290.088ZM858.393 225.55H1000.49V210.55H858.393V225.55ZM993.671 221.167L1025.17 290.117L1038.81 283.883L1007.31 214.933L993.671 221.167ZM872.225 206.095L936.275 64.6946L922.611 58.5054L858.561 199.905L872.225 206.095ZM922.618 64.7086L987.018 206.109L1000.67 199.891L936.269 58.4914L922.618 64.7086ZM993.843 195.5H865.393V210.5H993.843V195.5ZM1043.22 287H1035.72V294.5H1043.22V287ZM1202.12 287V294.5H1209.62V287H1202.12ZM1202.12 270.9H1209.62V263.4H1202.12V270.9ZM1061.07 270.9H1053.57V278.4H1061.07V270.9ZM1061.07 42H1068.57V34.5H1061.07V42ZM1043.22 42V34.5H1035.72V42H1043.22ZM1043.22 294.5H1202.12V279.5H1043.22V294.5ZM1209.62 287V270.9H1194.62V287H1209.62ZM1202.12 263.4H1061.07V278.4H1202.12V263.4ZM1068.57 270.9V42H1053.57V270.9H1068.57ZM1061.07 34.5H1043.22V49.5H1061.07V34.5ZM1035.72 42V287H1050.72V42H1035.72ZM1232.85 42V34.5H1225.35V42H1232.85ZM1232.85 287H1225.35V294.5H1232.85V287ZM1250.7 287V294.5H1258.2V287H1250.7ZM1250.7 206.85V199.35H1243.2V206.85H1250.7ZM1250.7 190.75H1243.2V198.25H1250.7V190.75ZM1250.7 58.1V50.6H1243.2V58.1H1250.7ZM1320.7 34.5H1232.85V49.5H1320.7V34.5ZM1225.35 42V287H1240.35V42H1225.35ZM1232.85 294.5H1250.7V279.5H1232.85V294.5ZM1258.2 287V206.85H1243.2V287H1258.2ZM1250.7 214.35H1320.7V199.35H1250.7V214.35ZM1320.7 214.35C1352.66 214.35 1379.23 206.364 1397.95 190.783C1416.84 175.056 1426.9 152.27 1426.9 124.6H1411.9C1411.9 148.38 1403.41 166.719 1388.35 179.255C1373.12 191.936 1350.34 199.35 1320.7 199.35V214.35ZM1426.9 124.6C1426.9 96.7706 1416.85 73.8964 1397.96 58.1182C1379.24 42.4863 1352.66 34.5 1320.7 34.5V49.5C1350.34 49.5 1373.11 56.9137 1388.34 69.6318C1403.4 82.2036 1411.9 100.629 1411.9 124.6H1426.9ZM1320.7 183.25H1250.7V198.25H1320.7V183.25ZM1258.2 190.75V58.1H1243.2V190.75H1258.2ZM1250.7 65.6H1320.7V50.6H1250.7V65.6ZM1320.7 65.6C1345.93 65.6 1364.09 71.4154 1375.83 81.2243C1387.36 90.8565 1393.7 105.181 1393.7 124.6H1408.7C1408.7 101.669 1401.04 82.7434 1385.45 69.7132C1370.06 56.8595 1347.97 50.6 1320.7 50.6V65.6ZM1393.7 124.6C1393.7 143.824 1387.37 158.064 1375.84 167.66C1364.09 177.435 1345.93 183.25 1320.7 183.25V198.25C1347.97 198.25 1370.05 191.99 1385.43 179.19C1401.03 166.211 1408.7 147.376 1408.7 124.6H1393.7ZM1534.49 296.25C1611.24 296.25 1669.39 240.234 1669.39 164.5H1654.39C1654.39 231.566 1603.35 281.25 1534.49 281.25V296.25ZM1669.39 164.5C1669.39 88.7662 1611.24 32.75 1534.49 32.75V47.75C1603.35 47.75 1654.39 97.4338 1654.39 164.5H1669.39ZM1534.49 32.75C1457.37 32.75 1399.59 89.1434 1399.59 164.5H1414.59C1414.59 97.7566 1465.32 47.75 1534.49 47.75V32.75ZM1399.59 164.5C1399.59 239.857 1457.37 296.25 1534.49 296.25V281.25C1465.32 281.25 1414.59 231.243 1414.59 164.5H1399.59ZM1534.49 264.8C1475.86 264.8 1432.44 222.181 1432.44 164.5H1417.44C1417.44 230.719 1467.83 279.8 1534.49 279.8V264.8ZM1432.44 164.5C1432.44 106.819 1475.86 64.2 1534.49 64.2V49.2C1467.83 49.2 1417.44 98.2807 1417.44 164.5H1432.44ZM1534.49 64.2C1592.76 64.2 1636.19 106.804 1636.19 164.5H1651.19C1651.19 98.2964 1600.82 49.2 1534.49 49.2V64.2ZM1636.19 164.5C1636.19 222.196 1592.76 264.8 1534.49 264.8V279.8C1600.82 279.8 1651.19 230.704 1651.19 164.5H1636.19ZM1659.06 287H1651.56V294.5H1659.06V287ZM1817.96 287V294.5H1825.46V287H1817.96ZM1817.96 270.9H1825.46V263.4H1817.96V270.9ZM1676.91 270.9H1669.41V278.4H1676.91V270.9ZM1676.91 42H1684.41V34.5H1676.91V42ZM1659.06 42V34.5H1651.56V42H1659.06ZM1659.06 294.5H1817.96V279.5H1659.06V294.5ZM1825.46 287V270.9H1810.46V287H1825.46ZM1817.96 263.4H1676.91V278.4H1817.96V263.4ZM1684.41 270.9V42H1669.41V270.9H1684.41ZM1676.91 34.5H1659.06V49.5H1676.91V34.5ZM1651.56 42V287H1666.56V42H1651.56ZM1799.04 287H1791.54V294.5H1799.04V287ZM1816.89 287V294.5H1824.39V287H1816.89ZM1816.89 42H1824.39V34.5H1816.89V42ZM1799.04 42V34.5H1791.54V42H1799.04ZM1799.04 294.5H1816.89V279.5H1799.04V294.5ZM1824.39 287V42H1809.39V287H1824.39ZM1816.89 34.5H1799.04V49.5H1816.89V34.5ZM1791.54 42V287H1806.54V42H1791.54ZM1896.67 287H1889.17V294.5H1896.67V287ZM1914.52 287V294.5H1922.02V287H1914.52ZM1914.52 58.1V50.6H1907.02V58.1H1914.52ZM2002.72 58.1V65.6H2010.22V58.1H2002.72ZM2002.72 42H2010.22V34.5H2002.72V42ZM1808.47 42V34.5H1800.97V42H1808.47ZM1808.47 58.1H1800.97V65.6H1808.47V58.1ZM1896.67 58.1H1904.17V50.6H1896.67V58.1ZM1896.67 294.5H1914.52V279.5H1896.67V294.5ZM1922.02 287V58.1H1907.02V287H1922.02ZM1914.52 65.6H2002.72V50.6H1914.52V65.6ZM2010.22 58.1V42H1995.22V58.1H2010.22ZM2002.72 34.5H1808.47V49.5H2002.72V34.5ZM1800.97 42V58.1H1815.97V42H1800.97ZM1808.47 65.6H1896.67V50.6H1808.47V65.6ZM1889.17 58.1V287H1904.17V58.1H1889.17ZM1994.48 287H1986.98V294.5H1994.48V287ZM2012.33 287V294.5H2019.83V287H2012.33ZM2012.33 42H2019.83V34.5H2012.33V42ZM1994.48 42V34.5H1986.98V42H1994.48ZM1994.48 294.5H2012.33V279.5H1994.48V294.5ZM2019.83 287V42H2004.83V287H2019.83ZM2012.33 34.5H1994.48V49.5H2012.33V34.5ZM1986.98 42V287H2001.98V42H1986.98ZM2223.35 287L2217.7 291.931L2219.95 294.5H2223.35V287ZM2245.05 287V294.5H2261.41L2250.74 282.106L2245.05 287ZM2129.9 153.3L2124.52 148.082L2119.75 153.003L2124.22 158.194L2129.9 153.3ZM2237.7 42L2243.09 47.2179L2255.41 34.5H2237.7V42ZM2216 42V34.5H2212.83L2210.62 36.775L2216 42ZM2063.05 199.5H2055.55V217.989L2068.44 204.725L2063.05 199.5ZM2063.05 42H2070.55V34.5H2063.05V42ZM2045.2 42V34.5H2037.7V42H2045.2ZM2045.2 287H2037.7V294.5H2045.2V287ZM2063.05 287V294.5H2070.55V287H2063.05ZM2063.05 222.6L2057.69 217.364L2055.55 219.549V222.6H2063.05ZM2118 166.25L2123.66 161.319L2118.31 155.193L2112.64 161.014L2118 166.25ZM2223.35 294.5H2245.05V279.5H2223.35V294.5ZM2250.74 282.106L2135.59 148.406L2124.22 158.194L2239.37 291.894L2250.74 282.106ZM2135.29 158.518L2243.09 47.2179L2232.32 36.7821L2124.52 148.082L2135.29 158.518ZM2237.7 34.5H2216V49.5H2237.7V34.5ZM2210.62 36.775L2057.67 194.275L2068.44 204.725L2221.39 47.225L2210.62 36.775ZM2070.55 199.5V42H2055.55V199.5H2070.55ZM2063.05 34.5H2045.2V49.5H2063.05V34.5ZM2037.7 42V287H2052.7V42H2037.7ZM2045.2 294.5H2063.05V279.5H2045.2V294.5ZM2070.55 287V222.6H2055.55V287H2070.55ZM2068.42 227.836L2123.37 171.486L2112.64 161.014L2057.69 217.364L2068.42 227.836ZM2112.35 171.181L2217.7 291.931L2229.01 282.069L2123.66 161.319L2112.35 171.181Z" fill="#FE7272"/>
<path d="M271.75 42H291L178.3 287H160.45L47.75 42H67L98.15 110.95H240.25L271.75 42ZM105.15 126L169.2 267.4L233.6 126H105.15ZM464.627 287V74.2L298.027 287H282.977V42H300.827V254.8L467.777 42H482.477V287H464.627Z" fill="#FE7272"/>
<path d="M271.75 42L264.928 38.8834L266.931 34.5H271.75V42ZM291 42V34.5H302.705L297.814 45.1343L291 42ZM178.3 287L185.114 290.134L183.105 294.5H178.3V287ZM160.45 287V294.5H155.645L153.636 290.134L160.45 287ZM47.75 42L40.9363 45.1343L36.0445 34.5H47.75V42ZM67 42V34.5H71.8415L73.8349 38.9122L67 42ZM98.15 110.95V118.45H93.3085L91.3151 114.038L98.15 110.95ZM240.25 110.95L247.072 114.067L245.069 118.45H240.25V110.95ZM105.15 126L98.3182 129.095L93.5192 118.5H105.15V126ZM169.2 267.4L176.025 270.509L169.181 285.536L162.368 270.495L169.2 267.4ZM233.6 126V118.5H245.257L240.425 129.109L233.6 126ZM271.75 34.5H291V49.5H271.75V34.5ZM297.814 45.1343L185.114 290.134L171.486 283.866L284.186 38.8657L297.814 45.1343ZM178.3 294.5H160.45V279.5H178.3V294.5ZM153.636 290.134L40.9363 45.1343L54.5637 38.8657L167.264 283.866L153.636 290.134ZM47.75 34.5H67V49.5H47.75V34.5ZM73.8349 38.9122L104.985 107.862L91.3151 114.038L60.1651 45.0878L73.8349 38.9122ZM98.15 103.45H240.25V118.45H98.15V103.45ZM233.428 107.833L264.928 38.8834L278.572 45.1166L247.072 114.067L233.428 107.833ZM111.982 122.905L176.032 264.305L162.368 270.495L98.3182 129.095L111.982 122.905ZM162.375 264.291L226.775 122.891L240.425 129.109L176.025 270.509L162.375 264.291ZM233.6 133.5H105.15V118.5H233.6V133.5ZM464.627 287V294.5H457.127V287H464.627ZM464.627 74.2L458.722 69.5766L472.127 52.4537V74.2H464.627ZM298.027 287L303.933 291.623L301.681 294.5H298.027V287ZM282.977 287V294.5H275.477V287H282.977ZM282.977 42H275.477V34.5H282.977V42ZM300.827 42V34.5H308.327V42H300.827ZM300.827 254.8L306.728 259.429L293.327 276.51V254.8H300.827ZM467.777 42L461.877 37.3706L464.129 34.5H467.777V42ZM482.477 42V34.5H489.977V42H482.477ZM482.477 287H489.977V294.5H482.477V287ZM457.127 287V74.2H472.127V287H457.127ZM470.533 78.8234L303.933 291.623L292.122 282.377L458.722 69.5766L470.533 78.8234ZM298.027 294.5H282.977V279.5H298.027V294.5ZM275.477 287V42H290.477V287H275.477ZM282.977 34.5H300.827V49.5H282.977V34.5ZM308.327 42V254.8H293.327V42H308.327ZM294.927 250.171L461.877 37.3706L473.678 46.6294L306.728 259.429L294.927 250.171ZM467.777 34.5H482.477V49.5H467.777V34.5ZM489.977 42V287H474.977V42H489.977ZM482.477 294.5H464.627V279.5H482.477V294.5Z" fill="#FE7272"/>
</svg>
